<svg fill="currentColor" height="24" viewBox="0 0 24 24" width="24" xmlns="http://www.w3.org/2000/svg"><g fill="currentColor"><path d="m5.75 3c-1.51878 0-2.75 1.23122-2.75 2.75v12.5c0 1.5188 1.23122 2.75 2.75 2.75h6.2718c-.2965-.4632-.536-.9665-.7083-1.5h-5.5635c-.69036 0-1.25-.5596-1.25-1.25v-12.5c0-.69036.55964-1.25 1.25-1.25h12.5c.6904 0 1.25.55964 1.25 1.25v5.5635c.5335.1723 1.0368.4118 1.5.7083v-6.2718c0-1.51878-1.2312-2.75-2.75-2.75z"/><path d="m17.9566 11.0158c.0309-.0822.0478-.1711.0478-.2641 0-.4142-.3358-.75-.75-.75h-5.0044c-.4142 0-.75.3358-.75.75s.3358.75.75.75h2.7415c.7719-.3232 1.6193-.5017 2.5085-.5017.1535 0 .3057.0053.4566.0158z"/><path d="m8.25 8.50171c-1.24264 0-2.25 1.00736-2.25 2.24999 0 1.2426 1.00736 2.25 2.25 2.25s2.25-1.0074 2.25-2.25c0-1.24263-1.00736-2.24999-2.25-2.24999zm-.75 2.24999c0-.4142.33579-.75.75-.75s.75.3358.75.75-.33579.75-.75.75-.75-.3358-.75-.75z"/><path d="m6 16.25c0-1.2426 1.00736-2.25 2.25-2.25s2.25 1.0074 2.25 2.25-1.00736 2.25-2.25 2.25-2.25-1.0074-2.25-2.25zm2.25-.75c-.41421 0-.75.3358-.75.75s.33579.75.75.75.75-.3358.75-.75-.33579-.75-.75-.75z"/><path d="m17.2544 7.5-10.49952.00002c-.41421 0-.75-.33578-.75-.75 0-.41421.33579-.75.75-.75l10.49952-.00002c.4142 0 .75.33578.75.75 0 .41421-.3358.75-.75.75z"/><path d="m23 17.5c0-3.0376-2.4624-5.5-5.5-5.5s-5.5 2.4624-5.5 5.5 2.4624 5.5 5.5 5.5 5.5-2.4624 5.5-5.5zm-4.9989 3.0035c0 .2762-.2238.5-.5.5-.2761 0-.5-.2238-.5-.5l-.0005-2.5035h-2.5045c-.2761 0-.5-.2238-.5-.5 0-.2761.2239-.5.5-.5h2.5044l-.0005-2.5007c0-.2762.2239-.5.5-.5s.5.2238.5.5l.0005 2.5007h2.5025c.2762 0 .5.2239.5.5 0 .2762-.2238.5-.5.5h-2.5024z"/></g></svg>